<svg width="128" height="128" xmlns="http://www.w3.org/2000/svg" xmlns:xlink="http://www.w3.org/1999/xlink">
 <defs>
  <radialGradient cx="4.992979" cy="43.5" r="2.5" fx="4.992979" fy="43.5" id="radialGradient3337-2-2" xlink:href="#linearGradient3688-166-749-4-0-3-8" gradientUnits="userSpaceOnUse" gradientTransform="matrix(2.003784,0,0,1.4,27.98813,-17.4)"/>
  <linearGradient id="linearGradient3688-166-749-4-0-3-8">
   <stop stop-color="#181818" id="stop2883-4-0-1-8" offset="0"/>
   <stop stop-color="#181818" stop-opacity="0" id="stop2885-9-2-9-6" offset="1"/>
  </linearGradient>
  <radialGradient cx="4.992979" cy="43.5" r="2.5" fx="4.992979" fy="43.5" id="radialGradient3339-1-4" xlink:href="#linearGradient3688-464-309-9-2-4-2" gradientUnits="userSpaceOnUse" gradientTransform="matrix(2.003784,0,0,1.4,-20.01187,-104.4)"/>
  <linearGradient id="linearGradient3688-464-309-9-2-4-2">
   <stop stop-color="#181818" id="stop2889-7-9-6-9" offset="0"/>
   <stop stop-color="#181818" stop-opacity="0" id="stop2891-6-6-1-7" offset="1"/>
  </linearGradient>
  <linearGradient id="linearGradient3702-501-757-8-4-1-1">
   <stop stop-color="#181818" stop-opacity="0" id="stop2895-8-9-9-1" offset="0"/>
   <stop stop-color="#181818" id="stop2897-7-8-7-7" offset="0.5"/>
   <stop stop-color="#181818" stop-opacity="0" id="stop2899-4-5-1-5" offset="1"/>
  </linearGradient>
  <linearGradient x1="0.537789" y1="1.003961" x2="0.537789" y2="-0.00008" id="linearGradient13984" xlink:href="#linearGradient3702-501-757-8-4-1-1"/>
  <linearGradient id="svg_5" x1="0" y1="0" x2="1" y2="0">
   <stop stop-color="#444444" offset="0"/>
  </linearGradient>
 </defs>
 <metadata id="metadata13991">image/svg+xml</metadata>
 <g>
  <title>background</title>
  <rect fill="none" id="canvas_background" height="130" width="130" y="-1" x="-1"/>
 </g>
 <g>
  <title>Layer 1</title>
  <g opacity="0.4" id="g3712-8-2-4-4" transform="matrix(3.1579004,0,0,1.4285714,-11.78961,54.357144) ">
   <rect fill="url(#radialGradient3337-2-2)" id="rect2801-5-5-7-9" y="40" x="37.802084" height="7" width="5"/>
   <rect fill="url(#radialGradient3339-1-4)" id="rect3696-3-0-3-7" transform="translate(-0.19791631400585175,0) scale(-1) " y="-47" x="-10" height="7" width="5"/>
   <rect fill="url(#linearGradient13984)" id="rect3700-5-6-8-4" y="40" x="9.802084" height="7" width="28"/>
  </g>
  <rect fill="url(#svg_5)" fill-rule="nonzero" stroke="#000000" id="rect5505-21-3-8-5-2" y="8.5" x="9.374893" ry="5" rx="5" height="108" width="108"/>
  <path fill="#c5074a" fill-rule="evenodd" stroke-width="1px" mask="none" clip-path="none" id="path4201-6" d="m-84.52211,172.99953l110.25001,0l0,-14.5l-2.5,-4.625l-2,-0.75l-100.75001,0l-3.5,1.75l-1.125,3l-0.375,15.125z"/>
  <g transform="matrix(0.9047486,0,0,0.9047486,-570.51497,-611.56047) " id="layer4-0"/>
  <g transform="matrix(0.9047486,0,0,0.9047486,-570.51497,-604.32248) " id="layer4-0-7"/>
  <g transform="matrix(0.9047486,0,0,0.9047486,-73.807987,64.496663) " id="layer1-3"/>
  <text stroke="#ffffff" transform="matrix(1.384131871060745,0,0,1.4845222234725954,-18.065165183783414,1.2331762071698913) " xml:space="preserve" text-anchor="start" font-family="Helvetica, Arial, sans-serif" font-size="24" id="svg_10" y="28.374996" x="25.562496" fill-opacity="null" stroke-width="0" fill="#ffffff">$_</text>
  <rect id="svg_11" height="59.999999" width="22.5" y="0.306812" x="81.017043" stroke="#000000" fill="#9ACEE6"/>
  <rect transform="rotate(45.25104522705078 90.2499923706055,64.62499999999999) " id="svg_13" height="23.75" width="18.125" y="52.749995" x="81.187495" fill-opacity="null" stroke="#000000" fill="#444444"/>
  <rect id="svg_15" height="28.75" width="57.499999" y="60.874995" x="51.187495" fill-opacity="null" fill="#444444"/>
 </g>
</svg>
